<svg id="visual" viewBox="0 0 900 900" width="900" height="900" xmlns="http://www.w3.org/2000/svg" xmlns:xlink="http://www.w3.org/1999/xlink" version="1.1"><rect x="0" y="0" width="900" height="900" fill="#5C7457"></rect><defs><linearGradient id="grad1_0" x1="0%" y1="0%" x2="100%" y2="100%"><stop offset="30%" stop-color="#20211c" stop-opacity="1"></stop><stop offset="70%" stop-color="#20211c" stop-opacity="1"></stop></linearGradient></defs><defs><linearGradient id="grad1_1" x1="0%" y1="0%" x2="100%" y2="100%"><stop offset="30%" stop-color="#20211c" stop-opacity="1"></stop><stop offset="70%" stop-color="#353a2d" stop-opacity="1"></stop></linearGradient></defs><defs><linearGradient id="grad1_2" x1="0%" y1="0%" x2="100%" y2="100%"><stop offset="30%" stop-color="#495641" stop-opacity="1"></stop><stop offset="70%" stop-color="#353a2d" stop-opacity="1"></stop></linearGradient></defs><defs><linearGradient id="grad1_3" x1="0%" y1="0%" x2="100%" y2="100%"><stop offset="30%" stop-color="#495641" stop-opacity="1"></stop><stop offset="70%" stop-color="#5c7457" stop-opacity="1"></stop></linearGradient></defs><defs><linearGradient id="grad2_0" x1="0%" y1="0%" x2="100%" y2="100%"><stop offset="30%" stop-color="#20211c" stop-opacity="1"></stop><stop offset="70%" stop-color="#20211c" stop-opacity="1"></stop></linearGradient></defs><defs><linearGradient id="grad2_1" x1="0%" y1="0%" x2="100%" y2="100%"><stop offset="30%" stop-color="#353a2d" stop-opacity="1"></stop><stop offset="70%" stop-color="#20211c" stop-opacity="1"></stop></linearGradient></defs><defs><linearGradient id="grad2_2" x1="0%" y1="0%" x2="100%" y2="100%"><stop offset="30%" stop-color="#353a2d" stop-opacity="1"></stop><stop offset="70%" stop-color="#495641" stop-opacity="1"></stop></linearGradient></defs><defs><linearGradient id="grad2_3" x1="0%" y1="0%" x2="100%" y2="100%"><stop offset="30%" stop-color="#5c7457" stop-opacity="1"></stop><stop offset="70%" stop-color="#495641" stop-opacity="1"></stop></linearGradient></defs><g transform="translate(900, 0)"><path d="M0 443C-31.6 428.2 -63.1 413.5 -90.6 396.8C-118 380.1 -141.4 361.5 -168.8 350.5C-196.2 339.4 -227.7 335.9 -260.6 326.8C-293.5 317.7 -327.7 302.9 -348.3 277.8C-368.8 252.6 -375.7 216.9 -383.8 184.8C-391.9 152.7 -401.3 124.1 -411.4 93.9C-421.5 63.7 -432.2 31.8 -443 0L0 0Z" fill="#53654b"></path><path d="M0 332.3C-23.7 321.2 -47.3 310.1 -67.9 297.6C-88.5 285.1 -106 271.1 -126.6 262.9C-147.2 254.6 -170.8 251.9 -195.5 245.1C-220.1 238.3 -245.8 227.2 -261.2 208.3C-276.6 189.4 -281.8 162.7 -287.9 138.6C-294 114.5 -301 93.1 -308.6 70.4C-316.1 47.8 -324.2 23.9 -332.2 0L0 0Z" fill="#3f4837"></path><path d="M0 221.5C-15.8 214.1 -31.6 206.7 -45.3 198.4C-59 190.1 -70.7 180.8 -84.4 175.2C-98.1 169.7 -113.9 168 -130.3 163.4C-146.8 158.8 -163.9 151.5 -174.1 138.9C-184.4 126.3 -187.8 108.5 -191.9 92.4C-196 76.4 -200.7 62.1 -205.7 47C-210.7 31.8 -216.1 15.9 -221.5 0L0 0Z" fill="#2b2d24"></path><path d="M0 110.8C-7.9 107.1 -15.8 103.4 -22.6 99.2C-29.5 95 -35.3 90.4 -42.2 87.6C-49.1 84.9 -56.9 84 -65.2 81.7C-73.4 79.4 -81.9 75.7 -87.1 69.4C-92.2 63.1 -93.9 54.2 -96 46.2C-98 38.2 -100.3 31 -102.9 23.5C-105.4 15.9 -108.1 8 -110.7 0L0 0Z" fill="#20211c"></path></g><g transform="translate(0, 900)"><path d="M0 -424C32.7 -425.9 65.4 -427.8 96.1 -421.2C126.8 -414.5 155.6 -399.4 186.6 -387.4C217.6 -375.4 250.8 -366.6 277.8 -348.3C304.7 -330 325.4 -302.2 341.7 -272.5C358 -242.8 369.9 -211.2 372.1 -179.2C374.3 -147.2 366.7 -114.9 372.4 -85C378.1 -55.1 397.1 -27.5 416 0L0 0Z" fill="#53654b"></path><path d="M0 -318C24.5 -319.4 49.1 -320.8 72.1 -315.9C95.1 -310.9 116.7 -299.6 139.9 -290.6C163.2 -281.6 188.1 -275 208.3 -261.2C228.5 -247.5 244 -226.6 256.2 -204.3C268.5 -182.1 277.4 -158.4 279.1 -134.4C280.7 -110.4 275 -86.2 279.3 -63.8C283.6 -41.3 297.8 -20.7 312 0L0 0Z" fill="#3f4837"></path><path d="M0 -212C16.4 -212.9 32.7 -213.9 48.1 -210.6C63.4 -207.3 77.8 -199.7 93.3 -193.7C108.8 -187.7 125.4 -183.3 138.9 -174.1C152.4 -165 162.7 -151.1 170.8 -136.2C179 -121.4 185 -105.6 186.1 -89.6C187.1 -73.6 183.4 -57.5 186.2 -42.5C189.1 -27.5 198.5 -13.8 208 0L0 0Z" fill="#2b2d24"></path><path d="M0 -106C8.2 -106.5 16.4 -106.9 24 -105.3C31.7 -103.6 38.9 -99.9 46.6 -96.9C54.4 -93.9 62.7 -91.7 69.4 -87.1C76.2 -82.5 81.3 -75.5 85.4 -68.1C89.5 -60.7 92.5 -52.8 93 -44.8C93.6 -36.8 91.7 -28.7 93.1 -21.3C94.5 -13.8 99.3 -6.9 104 0L0 0Z" fill="#20211c"></path></g></svg>