<svg id="visual" viewBox="0 0 900 900" width="900" height="900" xmlns="http://www.w3.org/2000/svg" xmlns:xlink="http://www.w3.org/1999/xlink" version="1.1"><path d="M0 190L15 181C30 172 60 154 90 157C120 160 150 184 180 199C210 214 240 220 270 224.5C300 229 330 232 360 230.5C390 229 420 223 450 214C480 205 510 193 540 206.5C570 220 600 259 630 277C660 295 690 292 720 283C750 274 780 259 810 269.5C840 280 870 316 885 334L900 352L900 0L885 0C870 0 840 0 810 0C780 0 750 0 720 0C690 0 660 0 630 0C600 0 570 0 540 0C510 0 480 0 450 0C420 0 390 0 360 0C330 0 300 0 270 0C240 0 210 0 180 0C150 0 120 0 90 0C60 0 30 0 15 0L0 0Z" fill="#435540"></path><path d="M0 262L15 247C30 232 60 202 90 202C120 202 150 232 180 250C210 268 240 274 270 283C300 292 330 304 360 307C390 310 420 304 450 298C480 292 510 286 540 296.5C570 307 600 334 630 346C660 358 690 355 720 352C750 349 780 346 810 352C840 358 870 373 885 380.5L900 388L900 350L885 332C870 314 840 278 810 267.5C780 257 750 272 720 281C690 290 660 293 630 275C600 257 570 218 540 204.5C510 191 480 203 450 212C420 221 390 227 360 228.5C330 230 300 227 270 222.5C240 218 210 212 180 197C150 182 120 158 90 155C60 152 30 170 15 179L0 188Z" fill="#586f53"></path><path d="M0 460L15 461.5C30 463 60 466 90 479.5C120 493 150 517 180 514C210 511 240 481 270 466C300 451 330 451 360 443.5C390 436 420 421 450 436C480 451 510 496 540 529C570 562 600 583 630 583C660 583 690 562 720 545.5C750 529 780 517 810 536.5C840 556 870 607 885 632.5L900 658L900 386L885 378.5C870 371 840 356 810 350C780 344 750 347 720 350C690 353 660 356 630 344C600 332 570 305 540 294.5C510 284 480 290 450 296C420 302 390 308 360 305C330 302 300 290 270 281C240 272 210 266 180 248C150 230 120 200 90 200C60 200 30 230 15 245L0 260Z" fill="#768b71"></path><path d="M0 676L15 661C30 646 60 616 90 607C120 598 150 610 180 622C210 634 240 646 270 643C300 640 330 622 360 608.5C390 595 420 586 450 586C480 586 510 595 540 617.5C570 640 600 676 630 677.5C660 679 690 646 720 638.5C750 631 780 649 810 670C840 691 870 715 885 727L900 739L900 656L885 630.5C870 605 840 554 810 534.5C780 515 750 527 720 543.5C690 560 660 581 630 581C600 581 570 560 540 527C510 494 480 449 450 434C420 419 390 434 360 441.5C330 449 300 449 270 464C240 479 210 509 180 512C150 515 120 491 90 477.5C60 464 30 461 15 459.5L0 458Z" fill="#83967e"></path><path d="M0 775L15 772C30 769 60 763 90 760C120 757 150 757 180 754C210 751 240 745 270 745C300 745 330 751 360 742C390 733 420 709 450 707.5C480 706 510 727 540 745C570 763 600 778 630 779.5C660 781 690 769 720 760C750 751 780 745 810 754C840 763 870 787 885 799L900 811L900 737L885 725C870 713 840 689 810 668C780 647 750 629 720 636.5C690 644 660 677 630 675.5C600 674 570 638 540 615.5C510 593 480 584 450 584C420 584 390 593 360 606.5C330 620 300 638 270 641C240 644 210 632 180 620C150 608 120 596 90 605C60 614 30 644 15 659L0 674Z" fill="#768b71"></path><path d="M0 838L15 839.5C30 841 60 844 90 848.5C120 853 150 859 180 851.5C210 844 240 823 270 823C300 823 330 844 360 844C390 844 420 823 450 820C480 817 510 832 540 842.5C570 853 600 859 630 853C660 847 690 829 720 817C750 805 780 799 810 808C840 817 870 841 885 853L900 865L900 809L885 797C870 785 840 761 810 752C780 743 750 749 720 758C690 767 660 779 630 777.5C600 776 570 761 540 743C510 725 480 704 450 705.5C420 707 390 731 360 740C330 749 300 743 270 743C240 743 210 749 180 752C150 755 120 755 90 758C60 761 30 767 15 770L0 773Z" fill="#586f53"></path><path d="M0 901L15 901C30 901 60 901 90 901C120 901 150 901 180 901C210 901 240 901 270 901C300 901 330 901 360 901C390 901 420 901 450 901C480 901 510 901 540 901C570 901 600 901 630 901C660 901 690 901 720 901C750 901 780 901 810 901C840 901 870 901 885 901L900 901L900 863L885 851C870 839 840 815 810 806C780 797 750 803 720 815C690 827 660 845 630 851C600 857 570 851 540 840.5C510 830 480 815 450 818C420 821 390 842 360 842C330 842 300 821 270 821C240 821 210 842 180 849.5C150 857 120 851 90 846.5C60 842 30 839 15 837.5L0 836Z" fill="#435540"></path></svg>