<svg id="visual" viewBox="0 0 900 600" width="900" height="600" xmlns="http://www.w3.org/2000/svg" xmlns:xlink="http://www.w3.org/1999/xlink" version="1.1"><rect x="0" y="0" width="900" height="600" fill="#E8F1F2"></rect><path d="M0 484L16.7 475.2C33.3 466.3 66.7 448.7 100 443.5C133.3 438.3 166.7 445.7 200 454.8C233.3 464 266.7 475 300 468.2C333.3 461.3 366.7 436.7 400 433.2C433.3 429.7 466.7 447.3 500 446.3C533.3 445.3 566.7 425.7 600 427.2C633.3 428.7 666.7 451.3 700 464.3C733.3 477.3 766.7 480.7 800 481.2C833.3 481.7 866.7 479.3 883.3 478.2L900 477L900 601L883.3 601C866.7 601 833.3 601 800 601C766.7 601 733.3 601 700 601C666.7 601 633.3 601 600 601C566.7 601 533.3 601 500 601C466.7 601 433.3 601 400 601C366.7 601 333.3 601 300 601C266.7 601 233.3 601 200 601C166.7 601 133.3 601 100 601C66.7 601 33.3 601 16.7 601L0 601Z" fill="#b3efb2"></path><path d="M0 496L16.7 498C33.3 500 66.7 504 100 494.3C133.3 484.7 166.7 461.3 200 458.8C233.3 456.3 266.7 474.7 300 486.8C333.3 499 366.7 505 400 503.3C433.3 501.7 466.7 492.3 500 488.5C533.3 484.7 566.7 486.3 600 478.8C633.3 471.3 666.7 454.7 700 452.7C733.3 450.7 766.7 463.3 800 471.8C833.3 480.3 866.7 484.7 883.3 486.8L900 489L900 601L883.3 601C866.7 601 833.3 601 800 601C766.7 601 733.3 601 700 601C666.7 601 633.3 601 600 601C566.7 601 533.3 601 500 601C466.7 601 433.3 601 400 601C366.7 601 333.3 601 300 601C266.7 601 233.3 601 200 601C166.7 601 133.3 601 100 601C66.7 601 33.3 601 16.7 601L0 601Z" fill="#a4daa5"></path><path d="M0 533L16.7 527C33.3 521 66.7 509 100 504.3C133.3 499.7 166.7 502.3 200 505C233.3 507.7 266.7 510.3 300 508.2C333.3 506 366.7 499 400 496C433.3 493 466.7 494 500 494.5C533.3 495 566.7 495 600 501.3C633.3 507.7 666.7 520.3 700 519.7C733.3 519 766.7 505 800 505.2C833.3 505.3 866.7 519.7 883.3 526.8L900 534L900 601L883.3 601C866.7 601 833.3 601 800 601C766.7 601 733.3 601 700 601C666.7 601 633.3 601 600 601C566.7 601 533.3 601 500 601C466.7 601 433.3 601 400 601C366.7 601 333.3 601 300 601C266.7 601 233.3 601 200 601C166.7 601 133.3 601 100 601C66.7 601 33.3 601 16.7 601L0 601Z" fill="#95c698"></path><path d="M0 516L16.7 515C33.3 514 66.7 512 100 518.7C133.3 525.3 166.7 540.7 200 544.5C233.3 548.3 266.7 540.7 300 534.2C333.3 527.7 366.7 522.3 400 525.2C433.3 528 466.7 539 500 537.8C533.3 536.7 566.7 523.3 600 520.2C633.3 517 666.7 524 700 531C733.3 538 766.7 545 800 542C833.3 539 866.7 526 883.3 519.5L900 513L900 601L883.3 601C866.7 601 833.3 601 800 601C766.7 601 733.3 601 700 601C666.7 601 633.3 601 600 601C566.7 601 533.3 601 500 601C466.7 601 433.3 601 400 601C366.7 601 333.3 601 300 601C266.7 601 233.3 601 200 601C166.7 601 133.3 601 100 601C66.7 601 33.3 601 16.7 601L0 601Z" fill="#87b28b"></path><path d="M0 570L16.7 565.7C33.3 561.3 66.7 552.7 100 553.8C133.3 555 166.7 566 200 565.5C233.3 565 266.7 553 300 548.2C333.3 543.3 366.7 545.7 400 550.3C433.3 555 466.7 562 500 563.3C533.3 564.7 566.7 560.3 600 560.2C633.3 560 666.7 564 700 564.3C733.3 564.7 766.7 561.3 800 556.7C833.3 552 866.7 546 883.3 543L900 540L900 601L883.3 601C866.7 601 833.3 601 800 601C766.7 601 733.3 601 700 601C666.7 601 633.3 601 600 601C566.7 601 533.3 601 500 601C466.7 601 433.3 601 400 601C366.7 601 333.3 601 300 601C266.7 601 233.3 601 200 601C166.7 601 133.3 601 100 601C66.7 601 33.3 601 16.7 601L0 601Z" fill="#7a9e7e"></path></svg>